<?xml version="1.0" encoding="UTF-8"?>
<svg width="24px" height="24px" viewBox="0 0 24 24" version="1.1" xmlns="http://www.w3.org/2000/svg" xmlns:xlink="http://www.w3.org/1999/xlink">
    <!-- Generator: Sketch 49.3 (51167) - http://www.bohemiancoding.com/sketch -->
    <title>icon</title>
    <desc>Created with Sketch.</desc>
    <defs></defs>
    <g id="Page-1" stroke="none" stroke-width="1" fill="none" fill-rule="evenodd">
        <g id="Mail-ver-3" transform="translate(-371.000000, -2275.000000)" fill="#1F1F22" fill-rule="nonzero">
            <g id="info" transform="translate(54.000000, 2273.000000)">
                <g id="icon" transform="translate(317.000000, 2.000000)">
                    <path d="M4,2 C2.8954305,2 2,2.8954305 2,4 L2,20 C2,21.1045695 2.8954305,22 4,22 L20,22 C21.1045695,22 22,21.1045695 22,20 L22,4 C22,2.8954305 21.1045695,2 20,2 L4,2 Z M4,0 L20,0 C22.209139,-4.05812251e-16 24,1.790861 24,4 L24,20 C24,22.209139 22.209139,24 20,24 L4,24 C1.790861,24 2.705415e-16,22.209139 0,20 L0,4 C-2.705415e-16,1.790861 1.790861,4.05812251e-16 4,0 Z" id="Rectangle-15"></path>
                    <path d="M22.3085956,4.27753205 C22.7076036,3.89567994 23.3406158,3.90958756 23.7224679,4.30859559 C24.1043201,4.70760362 24.0904124,5.34061583 23.6914044,5.72246795 L11.7810974,17.1206744 L6.33312893,12.2451731 C5.92158118,11.8768704 5.88652416,11.2446767 6.25482688,10.8331289 C6.6231296,10.4215812 7.25532331,10.3865242 7.66687107,10.7548269 L11.7355508,14.3959738 L22.3085956,4.27753205 Z" id="Path-4"></path>
                </g>
            </g>
        </g>
    </g>
</svg>