<?xml version="1.0" encoding="UTF-8"?>
<svg width="62px" height="44px" viewBox="0 0 62 44" version="1.1" xmlns="http://www.w3.org/2000/svg" xmlns:xlink="http://www.w3.org/1999/xlink">
    <!-- Generator: Sketch 49.3 (51167) - http://www.bohemiancoding.com/sketch -->
    <title>icon 2</title>
    <desc>Created with Sketch.</desc>
    <defs></defs>
    <g id="Page-1" stroke="none" stroke-width="1" fill="none" fill-rule="evenodd">
        <g id="Mail-ver-3" transform="translate(-55.000000, -1523.000000)">
            <g id="how-to-use" transform="translate(55.000000, 1267.000000)">
                <g id="3" transform="translate(0.000000, 238.000000)">
                    <g id="icon-2" transform="translate(0.000000, 18.000000)">
                        <path d="M5,2 C3.34314575,2 2,3.34314575 2,5 L2,39 C2,40.6568542 3.34314575,42 5,42 L57,42 C58.6568542,42 60,40.6568542 60,39 L60,5 C60,3.34314575 58.6568542,2 57,2 L5,2 Z M5,0 L57,0 C59.7614237,-4.4408921e-16 62,2.23857625 62,5 L62,39 C62,41.7614237 59.7614237,44 57,44 L5,44 C2.23857625,44 3.33066907e-16,41.7614237 0,39 L0,5 C-4.4408921e-16,2.23857625 2.23857625,5.55111512e-16 5,0 Z" id="Rectangle-27" fill="#1F1F22" fill-rule="nonzero"></path>
                        <rect id="Rectangle-26" fill="#72BF44" x="41" y="2" width="2" height="40"></rect>
                        <path d="M41,14.5 C41,12.5670034 39.4329966,11 37.5,11 C35.5670034,11 34,12.5670034 34,14.5 C34,16.4329966 35.5670034,18 37.5,18 L41,18 L41,14.5 Z M37.5,9 C40.5375661,9 43,11.4624339 43,14.5 L43,20 L37.5,20 C34.4624339,20 32,17.5375661 32,14.5 C32,11.4624339 34.4624339,9 37.5,9 Z" id="Rectangle-18" fill="#72BF44" fill-rule="nonzero"></path>
                        <path d="M50,14.5 C50,12.5670034 48.4329966,11 46.5,11 C44.5670034,11 43,12.5670034 43,14.5 C43,16.4329966 44.5670034,18 46.5,18 L50,18 L50,14.5 Z M46.5,9 C49.5375661,9 52,11.4624339 52,14.5 L52,20 L46.5,20 C43.4624339,20 41,17.5375661 41,14.5 C41,11.4624339 43.4624339,9 46.5,9 Z" id="Rectangle-18" fill="#72BF44" fill-rule="nonzero" transform="translate(46.500000, 14.500000) scale(-1, 1) translate(-46.500000, -14.500000) "></path>
                        <path d="M41.3126409,18.2919456 C41.7036885,17.9019454 42.3368529,17.9027944 42.7268532,18.2938421 C43.1168534,18.6848897 43.1160044,19.3180541 42.7249568,19.7080544 L35.7061579,26.7080544 C35.3151103,27.0980546 34.6819459,27.0972056 34.2919456,26.7061579 C33.9019454,26.3151103 33.9027944,25.6819459 34.2938421,25.2919456 L41.3126409,18.2919456 Z" id="Path-2" fill="#72BF44" fill-rule="nonzero"></path>
                        <path d="M48.2938421,18.2919456 C48.6848897,17.9019454 49.3180541,17.9027944 49.7080544,18.2938421 C50.0980546,18.6848897 50.0972056,19.3180541 49.7061579,19.7080544 L42.6873591,26.7080544 C42.2963115,27.0980546 41.6631471,27.0972056 41.2731468,26.7061579 C40.8831466,26.3151103 40.8839956,25.6819459 41.2750432,25.2919456 L48.2938421,18.2919456 Z" id="Path-2" fill="#72BF44" fill-rule="nonzero" transform="translate(45.490601, 22.500000) scale(-1, 1) translate(-45.490601, -22.500000) "></path>
                    </g>
                </g>
            </g>
        </g>
    </g>
</svg>