<?xml version="1.0" encoding="UTF-8"?>
<svg width="69px" height="60px" viewBox="0 0 69 60" version="1.1" xmlns="http://www.w3.org/2000/svg" xmlns:xlink="http://www.w3.org/1999/xlink">
    <!-- Generator: Sketch 49.3 (51167) - http://www.bohemiancoding.com/sketch -->
    <title>icon</title>
    <desc>Created with Sketch.</desc>
    <defs></defs>
    <g id="Page-1" stroke="none" stroke-width="1" fill="none" fill-rule="evenodd">
        <g id="Mail-ver-3" transform="translate(-370.000000, -1507.000000)">
            <g id="how-to-use" transform="translate(55.000000, 1267.000000)">
                <g id="4" transform="translate(315.000000, 240.000000)">
                    <g id="icon">
                        <rect id="Rectangle-23" fill="#72BF44" x="55" y="6" width="14" height="2" rx="1"></rect>
                        <rect id="Rectangle-23" fill="#72BF44" transform="translate(62.000000, 7.000000) rotate(-90.000000) translate(-62.000000, -7.000000) " x="55" y="6" width="14" height="2" rx="1"></rect>
                        <path d="M4.76076433,15.7023337 C3.2016633,15.8270618 2,17.1286974 2,18.6927796 L2,55 C2,56.6568542 3.34314575,58 5,58 L47,58 C48.6568542,58 50,56.6568542 50,55 L50,15.3327796 C50,15.252939 49.9968127,15.1731302 49.9904458,15.0935439 C49.8583196,13.4419663 48.412342,12.2102075 46.7607643,12.3423337 L4.76076433,15.7023337 Z M4.60127389,13.7087032 L46.6012739,10.3487032 C49.3539033,10.1284928 51.763866,12.1814241 51.9840764,14.9340535 C51.9946879,15.0666973 52,15.1997119 52,15.3327796 L52,55 C52,57.7614237 49.7614237,60 47,60 L5,60 C2.23857625,60 4.4408921e-16,57.7614237 0,55 L6.21724894e-15,18.6927796 C7.10542736e-15,16.0859759 2.00277216,13.9165833 4.60127389,13.7087032 Z" id="Rectangle-7-Copy" fill="#1F1F22" fill-rule="nonzero"></path>
                        <path d="M5,16 L53,16 C55.7614237,16 58,18.2385763 58,21 L58,55 C58,57.7614237 55.7614237,60 53,60 L5,60 C2.23857625,60 3.33066907e-16,57.7614237 0,55 L0,21 C-4.4408921e-16,18.2385763 2.23857625,16 5,16 Z" id="Path" fill="#FFFFFF"></path>
                        <path d="M5,18 C3.34314575,18 2,19.3431458 2,21 L2,55 C2,56.6568542 3.34314575,58 5,58 L53,58 C54.6568542,58 56,56.6568542 56,55 L56,21 C56,19.3431458 54.6568542,18 53,18 L5,18 Z M5,16 L53,16 C55.7614237,16 58,18.2385763 58,21 L58,55 C58,57.7614237 55.7614237,60 53,60 L5,60 C2.23857625,60 3.33066907e-16,57.7614237 0,55 L0,21 C-4.4408921e-16,18.2385763 2.23857625,16 5,16 Z" id="Rectangle-7" fill="#1F1F22" fill-rule="nonzero"></path>
                        <path d="M42,30 L58,30 C59.6568542,30 61,31.3431458 61,33 L61,43 C61,44.6568542 59.6568542,46 58,46 L42,46 C40.3431458,46 39,44.6568542 39,43 L39,33 C39,31.3431458 40.3431458,30 42,30 Z" id="Path" fill="#FFFFFF"></path>
                        <path d="M42,32 C41.4477153,32 41,32.4477153 41,33 L41,43 C41,43.5522847 41.4477153,44 42,44 L58,44 C58.5522847,44 59,43.5522847 59,43 L59,33 C59,32.4477153 58.5522847,32 58,32 L42,32 Z M42,30 L58,30 C59.6568542,30 61,31.3431458 61,33 L61,43 C61,44.6568542 59.6568542,46 58,46 L42,46 C40.3431458,46 39,44.6568542 39,43 L39,33 C39,31.3431458 40.3431458,30 42,30 Z" id="Rectangle-19" fill="#1F1F22" fill-rule="nonzero"></path>
                    </g>
                </g>
            </g>
        </g>
    </g>
</svg>