<?xml version="1.0" encoding="UTF-8"?>
<svg width="64px" height="63px" viewBox="0 0 64 63" version="1.1" xmlns="http://www.w3.org/2000/svg" xmlns:xlink="http://www.w3.org/1999/xlink">
    <!-- Generator: Sketch 49.3 (51167) - http://www.bohemiancoding.com/sketch -->
    <title>Group 10</title>
    <desc>Created with Sketch.</desc>
    <defs></defs>
    <g id="Page-1" stroke="none" stroke-width="1" fill="none" fill-rule="evenodd">
        <g id="Mail-ver-3" transform="translate(-370.000000, -1326.000000)">
            <g id="how-to-use" transform="translate(55.000000, 1267.000000)">
                <g id="2" transform="translate(315.000000, 59.000000)">
                    <g id="icon" transform="translate(1.000000, 0.000000)">
                        <g id="Group-10">
                            <path d="M27,63 C11.536027,63 -1,50.463973 -1,35 C-1,19.536027 11.536027,7 27,7 C42.463973,7 55,19.536027 55,35 C55,50.463973 42.463973,63 27,63 Z M27,61 C41.3594035,61 53,49.3594035 53,35 C53,20.6405965 41.3594035,9 27,9 C12.6405965,9 1,20.6405965 1,35 C1,49.3594035 12.6405965,61 27,61 Z" id="Oval-2" fill="#72BF44" fill-rule="nonzero"></path>
                            <circle id="Oval-4" fill="#FFFFFF" cx="47" cy="16" r="16"></circle>
                            <path d="M52.3145672,11.2718641 C52.7167056,10.89331 53.3495819,10.9124289 53.7281359,11.3145672 C54.10669,11.7167056 54.0875711,12.3495819 53.6854328,12.7281359 L44.7372853,21.1514989 L40.2928932,16.7071068 C39.9023689,16.3165825 39.9023689,15.6834175 40.2928932,15.2928932 C40.6834175,14.9023689 41.3165825,14.9023689 41.7071068,15.2928932 L44.7793628,18.3651493 L52.3145672,11.2718641 Z" id="Path-4" fill="#72BF44" fill-rule="nonzero"></path>
                            <path d="M20.2854546,27 C19.2610261,27 18.402224,27.7740734 18.2961957,28.7930002 L16.839373,42.7930002 C16.8322171,42.8617681 16.828632,42.9308608 16.828632,43 C16.828632,44.1045695 17.7240625,45 18.828632,45 L35.1708768,45 C35.240016,45 35.3091087,44.9964148 35.3778766,44.9892589 C36.476514,44.8749361 37.2744585,43.8916375 37.1601357,42.7930002 L35.703313,28.7930002 C35.5972848,27.7740734 34.7384826,27 33.7140541,27 L20.2854546,27 Z M20.2854546,25 L33.7140541,25 C35.7629112,25 37.4805154,26.5481467 37.692572,28.5860004 L39.1493946,42.5860004 C39.3780403,44.7832751 37.7821511,46.7498722 35.5848764,46.9785179 C35.4473406,46.9928297 35.3091552,47 35.1708768,47 L18.828632,47 C16.619493,47 14.828632,45.209139 14.828632,43 C14.828632,42.8617216 14.8358023,42.7235362 14.8501141,42.5860004 L16.3069368,28.5860004 C16.5189933,26.5481467 18.2365975,25 20.2854546,25 Z" id="Rectangle-6" fill="#1F1F22" fill-rule="nonzero"></path>
                            <path d="M33,29.4375 C33,29.9897847 32.5522847,30.4375 32,30.4375 C31.4477153,30.4375 31,29.9897847 31,29.4375 L31,25.0625 C31,22.853361 29.209139,21.0625 27,21.0625 C24.790861,21.0625 23,22.853361 23,25.0625 L23,29.4375 C23,29.9897847 22.5522847,30.4375 22,30.4375 C21.4477153,30.4375 21,29.9897847 21,29.4375 L21,25.0625 C21,21.7487915 23.6862915,19.0625 27,19.0625 C30.3137085,19.0625 33,21.7487915 33,25.0625 L33,29.4375 Z" id="Oval-5" fill="#1F1F22" fill-rule="nonzero"></path>
                        </g>
                    </g>
                </g>
            </g>
        </g>
    </g>
</svg>