<?xml version="1.0" encoding="UTF-8"?>
<svg width="28px" height="27px" viewBox="0 0 28 27" version="1.1" xmlns="http://www.w3.org/2000/svg" xmlns:xlink="http://www.w3.org/1999/xlink">
    <!-- Generator: Sketch 49.3 (51167) - http://www.bohemiancoding.com/sketch -->
    <title>icon</title>
    <desc>Created with Sketch.</desc>
    <defs></defs>
    <g id="Page-1" stroke="none" stroke-width="1" fill="none" fill-rule="evenodd">
        <g id="Mail-ver-3" transform="translate(-54.000000, -2273.000000)" fill-rule="nonzero">
            <g id="info" transform="translate(54.000000, 2273.000000)">
                <g id="icon">
                    <path d="M14,25 C20.627417,25 26,22.5375661 26,19.5 C26,16.4624339 20.627417,14 14,14 C7.372583,14 2,16.4624339 2,19.5 C2,22.5375661 7.372583,25 14,25 Z M14,27 C6.39664177,27 0,24.0682059 0,19.5 C0,14.9317941 6.39664177,12 14,12 C21.6033582,12 28,14.9317941 28,19.5 C28,24.0682059 21.6033582,27 14,27 Z" id="Oval" fill="#FFFFFF"></path>
                    <path d="M14,23 C16.9523625,23 19.6934389,22.4686186 21.651972,21.5709577 C23.2542119,20.8365977 24,20.0284455 24,19.5 C24,18.9715545 23.2542119,18.1634023 21.651972,17.4290423 C19.6934389,16.5313814 16.9523625,16 14,16 C11.0476375,16 8.30656109,16.5313814 6.34802805,17.4290423 C4.74578806,18.1634023 4,18.9715545 4,19.5 C4,20.0284455 4.74578806,20.8365977 6.34802805,21.5709577 C8.30656109,22.4686186 11.0476375,23 14,23 Z M14,25 C7.372583,25 2,22.5375661 2,19.5 C2,16.4624339 7.372583,14 14,14 C20.627417,14 26,16.4624339 26,19.5 C26,22.5375661 20.627417,25 14,25 Z" id="Oval" fill="#1F1F22"></path>
                    <path d="M14,21 C6.39664177,21 0,18.0682059 0,13.5 C0,8.93179415 6.39664177,6 14,6 C21.6033582,6 28,8.93179415 28,13.5 C28,18.0682059 21.6033582,21 14,21 Z" id="Oval-Copy" fill="#FFFFFF"></path>
                    <path d="M14,17 C16.9523625,17 19.6934389,16.4686186 21.651972,15.5709577 C23.2542119,14.8365977 24,14.0284455 24,13.5 C24,12.9715545 23.2542119,12.1634023 21.651972,11.4290423 C19.6934389,10.5313814 16.9523625,10 14,10 C11.0476375,10 8.30656109,10.5313814 6.34802805,11.4290423 C4.74578806,12.1634023 4,12.9715545 4,13.5 C4,14.0284455 4.74578806,14.8365977 6.34802805,15.5709577 C8.30656109,16.4686186 11.0476375,17 14,17 Z M14,19 C7.372583,19 2,16.5375661 2,13.5 C2,10.4624339 7.372583,8 14,8 C20.627417,8 26,10.4624339 26,13.5 C26,16.5375661 20.627417,19 14,19 Z" id="Oval-Copy" fill="#1F1F22"></path>
                    <path d="M14,15 C6.39664177,15 0,12.0682059 0,7.5 C0,2.93179415 6.39664177,0 14,0 C21.6033582,0 28,2.93179415 28,7.5 C28,12.0682059 21.6033582,15 14,15 Z" id="Oval-Copy-2" fill="#FFFFFF"></path>
                    <path d="M14,11 C16.9523625,11 19.6934389,10.4686186 21.651972,9.57095765 C23.2542119,8.83659766 24,8.02844553 24,7.5 C24,6.97155447 23.2542119,6.16340234 21.651972,5.42904235 C19.6934389,4.53138137 16.9523625,4 14,4 C11.0476375,4 8.30656109,4.53138137 6.34802805,5.42904235 C4.74578806,6.16340234 4,6.97155447 4,7.5 C4,8.02844553 4.74578806,8.83659766 6.34802805,9.57095765 C8.30656109,10.4686186 11.0476375,11 14,11 Z M14,13 C7.372583,13 2,10.5375661 2,7.5 C2,4.46243388 7.372583,2 14,2 C20.627417,2 26,4.46243388 26,7.5 C26,10.5375661 20.627417,13 14,13 Z" id="Oval-Copy-2" fill="#1F1F22"></path>
                </g>
            </g>
        </g>
    </g>
</svg>