<?xml version="1.0" encoding="UTF-8"?>
<svg width="25px" height="18px" viewBox="0 0 25 18" version="1.1" xmlns="http://www.w3.org/2000/svg" xmlns:xlink="http://www.w3.org/1999/xlink">
    <!-- Generator: Sketch 49.3 (51167) - http://www.bohemiancoding.com/sketch -->
    <title>Combined Shape</title>
    <desc>Created with Sketch.</desc>
    <defs></defs>
    <g id="Page-1" stroke="none" stroke-width="1" fill="none" fill-rule="evenodd">
        <g id="Mail-ver-3" transform="translate(-642.000000, -34.000000)" fill="#1F1F22" fill-rule="nonzero">
            <g id="header">
                <g id="volume" transform="translate(634.000000, 22.000000)">
                    <path d="M18,15 L13.6,18.3 C13.4607784,18.4044162 13.2967178,18.4706925 13.1240347,18.4922779 L10,18.8827822 L10,23.1172178 L13.1240347,23.5077221 C13.2967178,23.5293075 13.4607784,23.5955838 13.6,23.7 L18,27 L18,15 Z M28.4852814,20.0710678 L31.3137085,17.2426407 C31.7042328,16.8521164 32.3373978,16.8521164 32.7279221,17.2426407 C33.1184464,17.633165 33.1184464,18.26633 32.7279221,18.6568542 L29.8994949,21.4852814 L32.7279221,24.3137085 C33.1184464,24.7042328 33.1184464,25.3373978 32.7279221,25.7279221 C32.3373978,26.1184464 31.7042328,26.1184464 31.3137085,25.7279221 L28.4852814,22.8994949 L25.6568542,25.7279221 C25.26633,26.1184464 24.633165,26.1184464 24.2426407,25.7279221 C23.8521164,25.3373978 23.8521164,24.7042328 24.2426407,24.3137085 L27.0710678,21.4852814 L24.2426407,18.6568542 C23.8521164,18.26633 23.8521164,17.633165 24.2426407,17.2426407 C24.633165,16.8521164 25.26633,16.8521164 25.6568542,17.2426407 L28.4852814,20.0710678 Z M12.6124515,16.5406613 L18.4,12.2 C19.0592363,11.7055728 20,12.1759547 20,13 L20,29 C20,29.8240453 19.0592363,30.2944272 18.4,29.8 L12.6124515,25.4593387 L8.87596527,24.9922779 C8.37553644,24.9297243 8,24.5043233 8,24 L8,18 C8,17.4956767 8.37553644,17.0702757 8.87596527,17.0077221 L12.6124515,16.5406613 Z" id="Combined-Shape"></path>
                </g>
            </g>
        </g>
    </g>
</svg>